# xmcd
#
# Track frame offsets:
#  150
#  23733
#  44035
#  66879
#  87007
#  109233
#
# Disc length: 1730 seconds
#
# Revision: 0
# Processed by: cddbd v1.5.1PL0 Copyright (c) Steve Scherf et al.
# Submitted via: AltoMP3_Maker 3.0
#
DISCID=4a06c006
DTITLE=Anders Bakke og Bakkemannskapet - Skårfeste ...nesten ein heil CD
DYEAR=1900
DGENRE=
TTITLE0=Skårfeste
TTITLE1=Dag for dag
TTITLE2=Høge hus
TTITLE3=De dø'e
TTITLE4=Heil og fri
TTITLE5=Slarv
EXTD=
EXTT0=
EXTT1=
EXTT2=
EXTT3=
EXTT4=
EXTT5=
PLAYORDER=
